<svg version="1.2" xmlns="http://www.w3.org/2000/svg" viewBox="0 0 20 20" width="20" height="20"><style>.a{fill:#fff}.b{fill:none;stroke:#fff;stroke-miterlimit:10;stroke-width:1.6}</style><path class="a" d="m10.9 0.4q-0.1 0-0.3 0-0.1 0.1-0.2 0.1-0.1 0.1-0.2 0.2-0.1 0.1-0.2 0.2-0.2-0.3-0.5-0.4-0.4-0.1-0.7 0-0.3 0.1-0.5 0.4-0.2 0.2-0.2 0.6c0 1.6 1.9 2.1 1.9 2.1 0 0 2-0.5 2-2.1q-0.1-0.2-0.1-0.4-0.1-0.2-0.3-0.4-0.1-0.1-0.3-0.2-0.2-0.1-0.4-0.1z"/><path class="b" d="m19.6 18.8l-19.2-0.1"/><path class="b" d="m17.2 13.2v5.6h-14.4v-5.6z"/><path class="b" d="m14.8 8.4v4.8h-9.6v-4.8z"/><path class="b" d="m12.4 5.2v3.2h-4.8v-3.2z"/><path class="b" d="m2.8 13.2l0.7 1.2q0.4 0.7 1.1 1.2 0.7 0.4 1.5 0.4 0.9 0.1 1.6-0.3 0.7-0.3 1.2-1l1.1-1.5"/><path class="b" d="m17.2 13.2l-0.7 1.2q-0.4 0.7-1.1 1.2-0.7 0.4-1.5 0.4-0.9 0.1-1.6-0.3-0.7-0.3-1.2-1l-1.1-1.5"/><path class="b" d="m5.2 6.8v1.6"/><path class="b" d="m2.8 11.6v1.6"/><path class="b" d="m14.8 6.8v1.6"/><path class="b" d="m17.2 11.6v1.6"/><path class="b" d="m11.6 11.6v1.6"/><path class="b" d="m8.4 11.6v1.6"/><path class="b" d="m10 2.8v2.4"/></svg>