<svg version="1.2" xmlns="http://www.w3.org/2000/svg" viewBox="0 0 512 512" width="512" height="512"><style>.a{fill:#fff}</style><path fill-rule="evenodd" class="a" d="m512 362.7c0 70.7-45 147.9-117.8 149.3-12.6-0.1-49.2-2.7-83.3-13.1-33.3-10.2-74.7-10.2-108 0-31.9 9.7-62.4 13.1-81.2 13.1h-2.1c-71.5-1-119.6-78.1-119.6-149.3 0-82.4 61.2-149.4 136.4-149.4h98.3v-128c0-35.3 28.7-64 64-64 35.3 0 64 28.7 64 64v21.4c0 11.7 9.5 21.3 21.3 21.3 11.8 0 21.3-9.6 21.3-21.3v-85.4c0-11.7 9.6-21.3 21.4-21.3 11.7 0 21.3 9.6 21.3 21.3v85.4c0 35.3-28.7 64-64 64-35.3 0-64-28.7-64-64v-21.4c0-11.7-9.6-21.3-21.3-21.3-11.8 0-21.4 9.6-21.4 21.3v128h100.1c74.2 0 134.6 67 134.6 149.4zm-298.7 0c0-11.8-9.5-21.4-21.3-21.4h-21.3v-21.3c0-11.8-9.6-21.3-21.4-21.3-11.7 0-21.3 9.5-21.3 21.3v21.3h-21.3c-11.8 0-21.4 9.6-21.4 21.4 0 11.7 9.6 21.3 21.4 21.3h21.3v21.3c0 11.8 9.6 21.4 21.3 21.4 11.8 0 21.4-9.6 21.4-21.4v-21.3h21.3c11.8 0 21.3-9.6 21.3-21.3zm128-42.7c0 11.8 9.6 21.3 21.4 21.3 11.7 0 21.3-9.5 21.3-21.3 0-11.8-9.6-21.3-21.3-21.3-11.8 0-21.4 9.5-21.4 21.3zm0 42.7c0-11.8-9.5-21.4-21.3-21.4-11.8 0-21.3 9.6-21.3 21.4 0 11.7 9.5 21.3 21.3 21.3 11.8 0 21.3-9.6 21.3-21.3zm42.7 42.6c0-11.7-9.6-21.3-21.3-21.3-11.8 0-21.4 9.6-21.4 21.3 0 11.8 9.6 21.4 21.4 21.4 11.7 0 21.3-9.6 21.3-21.4zm42.7-42.6c0-11.8-9.6-21.4-21.4-21.4-11.7 0-21.3 9.6-21.3 21.4 0 11.7 9.6 21.3 21.3 21.3 11.8 0 21.4-9.6 21.4-21.3z"/></svg>