<svg version="1.2" xmlns="http://www.w3.org/2000/svg" viewBox="0 0 20 20" width="20" height="20">
	<title>share-svgrepo-com</title>
	<style>
		.s0 { fill: #ffffff } 
	</style>
	<g id="Page-1">
		<g id="Icon-Set-Filled">
			<path id="share" fill-rule="evenodd" class="s0" d="m15.4 12.3c-1.4 0-2.6 0.7-3.2 1.8l-4.2-2.4c0.3-0.5 0.5-1.1 0.5-1.7q0-0.6-0.2-1.1l4.3-2.5c0.7 0.8 1.7 1.3 2.8 1.3 2.1 0 3.8-1.7 3.8-3.9 0-2.1-1.7-3.8-3.8-3.8-2.1 0-3.9 1.7-3.9 3.8q0 0.6 0.2 1.2l-4.3 2.4c-0.7-0.8-1.7-1.2-2.8-1.2-2.1 0-3.8 1.7-3.8 3.8 0 2.1 1.7 3.8 3.8 3.8 0.9 0 1.7-0.3 2.3-0.8l4.7 2.7q-0.1 0.2-0.1 0.5c0 2.1 1.8 3.8 3.9 3.8 2.1 0 3.8-1.7 3.8-3.8 0-2.2-1.7-3.9-3.8-3.9z"/>
		</g>
	</g>
</svg>