<svg version="1.2" xmlns="http://www.w3.org/2000/svg" viewBox="0 0 20 20" width="20" height="20">
	<title>guitar-svgrepo-com</title>
	<style>
		.s0 { fill: #ffffff } 
	</style>
	<g id="guitar">
		<path fill-rule="evenodd" class="s0" d="m19.6 3.3c0.2 0.2 0.2 0.5 0 0.6q-0.2 0.2-0.4 0.2-0.1 0-0.3-0.2l-0.4-0.4-0.2 0.2 0.4 0.5c0.2 0.1 0.2 0.4 0 0.6q-0.1 0.1-0.3 0.1-0.2 0-0.4-0.1l-0.4-0.4-0.2 0.2 0.4 0.4c0.2 0.2 0.2 0.5 0 0.7q-0.1 0.1-0.3 0.1-0.2 0-0.3-0.1l-0.5-0.5-3.3 3.3c0.9 1.6 0.8 3.4-0.3 4.6q-0.4 0.3-0.7 0.5c-0.6 0.3-0.9 0.9-1 1.5 0 1.3-0.4 2.5-1.3 3.3-2.1 2.1-5.7 1.8-8.1-0.6-2.4-2.4-2.7-6-0.6-8.1 0.8-0.9 2-1.3 3.3-1.3 0.6 0 1.2-0.4 1.5-0.9q0.2-0.4 0.5-0.7c1.2-1.2 3-1.3 4.6-0.4l3.3-3.3-0.5-0.5c-0.2-0.1-0.2-0.4 0-0.6 0.2-0.2 0.5-0.2 0.7 0l0.4 0.4 0.2-0.2-0.4-0.4c-0.2-0.2-0.2-0.5 0-0.7 0.2-0.2 0.5-0.2 0.7 0l0.4 0.4 0.2-0.2-0.4-0.4c-0.2-0.2-0.2-0.5 0-0.7 0.1-0.1 0.4-0.1 0.6 0l0.5 0.5 0.4-0.5q0.2-0.2 0.5-0.2 0.4 0 0.6 0.2l1.1 1.1c0.3 0.3 0.3 0.8 0 1.1l-0.5 0.4zm-9 6c-0.9-0.8-2.2-0.8-3.1 0-0.8 0.9-0.8 2.3 0 3.1 0.9 0.8 2.2 0.8 3.1 0 0.8-0.8 0.8-2.2 0-3.1z"/>
	</g>
	<g id="Layer_1">
	</g>
</svg>