<svg version="1.2" xmlns="http://www.w3.org/2000/svg" viewBox="0 0 20 18" width="20" height="18">
	<title>theater-masks-couple-svgrepo-com</title>
	<style>
		.s0 { fill: #ffffff } 
	</style>
	<g>
		<g>
			<path fill-rule="evenodd" class="s0" d="m20 1.4v6.8c0 3.8-2.7 6.8-6 6.8q-1.2 0-2.3-0.5c0.5-1 0.8-2.3 0.8-3.5q0 0 0.1 0c0.5-0.1 1-0.1 1.4-0.1h0.7l0.8 0.1c0.4 0 0.9 0 1.5 0.2 0.1 0 0.2-0.1 0.2-0.2-0.1-0.8-0.6-1.4-1.1-1.9q-0.5-0.3-1-0.5-0.3-0.1-0.5-0.1-0.4-0.1-0.6-0.1-0.8 0-1.5 0.4v-4.7c0-0.2-0.1-0.5-0.4-0.6q-0.1 0-0.2 0-0.2 0-0.4 0.2c0 0.1-0.3 0.3-1.1 0.5-0.5 0.1-1.2 0.3-2.4 0.4v-3.2c0 0 0-1.2 6-1.2 6 0 6 1.2 6 1.2zm-2 4.8l-2.3-2.2c-0.1-0.1-0.2-0.1-0.3 0-0.6 0.7-0.5 1.8 0.2 2.4 0.6 0.6 1.7 0.7 2.4 0.2 0.1-0.1 0.1-0.3 0-0.4z"/>
			<path fill-rule="evenodd" class="s0" d="m11.9 10.9c0 3.8-2.6 6.9-5.9 6.9-3.3 0-6-3.1-6-6.9v-6.8c0 0 1.1 1.2 6 1.2 4.9 0 5.9-1.2 5.9-1.2zm-6.8-0.7c0.1 0 0.2-0.1 0.2-0.2-0.1-0.9-0.9-1.6-1.8-1.6-0.9 0-1.7 0.7-1.8 1.6 0 0.1 0.1 0.2 0.2 0.2zm3.9 2.2c-0.6 0.1-1.1 0.2-1.6 0.2-0.5 0-1 0-1.4 0h-0.7-0.8c-0.4 0-0.9-0.1-1.5-0.2-0.1-0.1-0.2 0-0.2 0.1 0.1 0.8 0.6 1.5 1.1 1.9q0.5 0.4 1 0.5 0.3 0.1 0.5 0.2 0.4 0 0.6 0 1.1 0 2.1-0.7c0.5-0.4 1-1.1 1.1-1.9 0-0.1-0.1-0.2-0.2-0.1zm1.3-2.4c-0.1-0.9-0.9-1.6-1.8-1.6-1 0-1.7 0.7-1.8 1.6-0.1 0.1 0.1 0.2 0.2 0.2h3.2c0.1 0 0.2-0.1 0.2-0.2z"/>
		</g>
	</g>
</svg>