<svg version="1.2" xmlns="http://www.w3.org/2000/svg" viewBox="0 0 20 20" width="20" height="20">
	<title>video-player-campaign-youtube-svgrepo-com</title>
	<style>
		.s0 { fill: #ffffff } 
	</style>
	<path fill-rule="evenodd" class="s0" d="m20 0.8v12.3c0 0.4-0.3 0.7-0.8 0.7h-18.4c-0.5 0-0.8-0.3-0.8-0.7v-12.3c0-0.5 0.3-0.8 0.8-0.8h18.4c0.5 0 0.8 0.3 0.8 0.8zm-7.7 6.1c0-0.2-0.1-0.4-0.3-0.6l-3.1-2.3c-0.2-0.2-0.5-0.2-0.7-0.1q-0.5 0.3-0.5 0.7v4.6q0 0.5 0.5 0.7c0 0.1 0.1 0.1 0.3 0.1 0.1 0 0.3-0.1 0.4-0.2l3.1-2.3c0.2-0.1 0.3-0.3 0.3-0.6z"/>
	<g>
		<path class="s0" d="m5.4 20c-1.3 0-2.3-1-2.3-2.3 0-1.3 1-2.3 2.3-2.3 1.3 0 2.3 1 2.3 2.3 0 1.3-1 2.3-2.3 2.3z"/>
	</g>
	<g>
		<path class="s0" d="m3.8 18.5h-3c-0.5 0-0.8-0.3-0.8-0.8 0-0.5 0.3-0.8 0.8-0.8h3c0.5 0 0.8 0.3 0.8 0.8 0 0.5-0.3 0.8-0.8 0.8z"/>
	</g>
	<g>
		<path class="s0" d="m19.2 18.5h-10c-0.4 0-0.7-0.3-0.7-0.8 0-0.5 0.3-0.8 0.7-0.8h10c0.5 0 0.8 0.3 0.8 0.8 0 0.5-0.3 0.8-0.8 0.8z"/>
	</g>
</svg>