<svg version="1.2" xmlns="http://www.w3.org/2000/svg" viewBox="0 0 20 20" width="20" height="20">
	<title>music-svgrepo-com</title>
	<style>
		.s0 { fill: #ffffff } 
	</style>
	<path id="Layer 1" fill-rule="evenodd" class="s0" d="m18.9 0.2q0.1 0 0.1 0 0.1 0 0.2 0.1c0 0 0.1 0 0.2 0.1 0 0 0.1 0 0.1 0.1q0.1 0 0.1 0.1c0 0 0.1 0.1 0.1 0.2 0 0 0.1 0.1 0.1 0.2 0 0 0 0.2 0 7.1 0 5.8 0 7 0 7.1 0 0.1 0 0.2-0.1 0.2 0 0.1 0 0.2 0 0.3 0 0-0.1 0.1-0.1 0.2-0.1 0.1-0.1 0.2-0.2 0.3 0 0-0.1 0.1-0.1 0.2 0 0-0.1 0.1-0.2 0.2 0 0-0.1 0.1-0.2 0.2 0 0-0.1 0.1-0.2 0.2-0.1 0.1-0.2 0.1-0.3 0.2-0.1 0-0.2 0.1-0.3 0.1 0 0.1-0.2 0.1-0.2 0.2-0.1 0-0.3 0.1-0.4 0.1-0.1 0-0.3 0.1-0.4 0.1-0.1 0-0.2 0.1-0.3 0.1-0.1 0-0.2 0-0.3 0-0.2 0-0.3 0-0.6 0-0.3 0-0.5 0-0.6 0-0.1 0-0.2 0-0.3 0-0.1 0-0.3-0.1-0.4-0.1-0.1 0-0.2-0.1-0.4-0.1-0.1 0-0.2-0.1-0.3-0.1-0.1-0.1-0.2-0.1-0.3-0.2-0.1 0-0.2-0.1-0.2-0.1-0.1-0.1-0.2-0.1-0.3-0.2-0.1-0.1-0.2-0.2-0.3-0.2 0-0.1-0.1-0.2-0.2-0.2 0-0.1-0.1-0.2-0.1-0.2-0.1-0.1-0.2-0.2-0.2-0.3 0 0-0.1-0.1-0.1-0.1q0-0.1-0.1-0.2c0-0.1 0-0.2-0.1-0.2 0-0.1 0-0.2 0-0.3 0 0 0-0.1 0-0.2q-0.1-0.2 0-0.4c0-0.1 0-0.2 0-0.2 0-0.1 0-0.2 0.1-0.3 0 0 0-0.1 0-0.2 0.1-0.1 0.1-0.2 0.1-0.2 0.1-0.1 0.1-0.2 0.2-0.2 0-0.1 0.1-0.2 0.2-0.3 0-0.1 0.1-0.2 0.2-0.2 0-0.1 0.1-0.2 0.2-0.2 0.1-0.1 0.2-0.1 0.2-0.2 0.1 0 0.2-0.1 0.3-0.1 0-0.1 0.1-0.1 0.2-0.2 0.1 0 0.2 0 0.2-0.1 0.1 0 0.2 0 0.3-0.1 0.1 0 0.3-0.1 0.3-0.1 0.1 0 0.3 0 0.4 0 0-0.1 0.2-0.1 0.3-0.1 0.1 0 0.3 0 0.4 0 0.2 0 0.3 0 0.5 0 0.2 0 0.4 0 0.5 0 0.1 0 0.2 0 0.3 0.1 0.1 0 0.2 0 0.3 0 0.1 0 0.2 0.1 0.3 0.1 0.1 0 0.2 0.1 0.2 0.1q0.1 0 0.1 0c0 0 0-1.3 0-6l-4.8 0.8c-2.7 0.4-4.9 0.8-5 0.8v4.5c0 2.9 0 4.6 0 4.7 0 0 0 0.1 0 0.2 0 0 0 0.1 0 0.2-0.1 0-0.1 0.1-0.1 0.2 0 0.1-0.1 0.2-0.1 0.3-0.1 0-0.1 0.1-0.2 0.2 0 0-0.1 0.1-0.1 0.2-0.1 0.1-0.1 0.2-0.2 0.2-0.1 0.1-0.1 0.1-0.2 0.2-0.1 0-0.2 0.1-0.2 0.2-0.1 0-0.2 0.1-0.3 0.2-0.1 0-0.2 0.1-0.3 0.1-0.1 0.1-0.3 0.1-0.3 0.2-0.1 0-0.3 0.1-0.3 0.1-0.1 0-0.3 0.1-0.3 0.1-0.1 0-0.2 0-0.3 0-0.1 0-0.2 0-0.2 0.1-0.1 0-0.2 0-0.3 0-0.1 0-0.3 0-0.5 0-0.2 0-0.4 0-0.5 0-0.1 0-0.2 0-0.2 0-0.1-0.1-0.2-0.1-0.3-0.1 0 0-0.1 0-0.2 0-0.1 0-0.2-0.1-0.3-0.1-0.1 0-0.3-0.1-0.3-0.1-0.1-0.1-0.2-0.1-0.3-0.2-0.1 0-0.3-0.1-0.3-0.1-0.1-0.1-0.2-0.1-0.3-0.2 0 0-0.1-0.1-0.2-0.1 0-0.1-0.1-0.2-0.2-0.2 0-0.1-0.1-0.2-0.2-0.2-0.1-0.1-0.1-0.2-0.2-0.3 0-0.1-0.1-0.2-0.1-0.2-0.1-0.1-0.1-0.2-0.2-0.3 0-0.1 0-0.2 0-0.2 0-0.1-0.1-0.2-0.1-0.2 0-0.1 0-0.2 0-0.3 0-0.1 0-0.2 0-0.3 0-0.1 0-0.2 0-0.3 0-0.1 0.1-0.2 0.1-0.2 0-0.1 0.1-0.2 0.1-0.3 0 0 0.1-0.1 0.1-0.2 0-0.1 0.1-0.1 0.1-0.2q0.1 0 0.1-0.1c0-0.1 0.1-0.1 0.2-0.2 0-0.1 0.1-0.2 0.2-0.2 0.1-0.1 0.2-0.2 0.2-0.2 0.1-0.1 0.2-0.2 0.3-0.2 0.1-0.1 0.2-0.1 0.3-0.2 0.1 0 0.3-0.1 0.3-0.1 0.1-0.1 0.2-0.1 0.3-0.1 0 0 0.1-0.1 0.2-0.1 0.1 0 0.3-0.1 0.4-0.1 0.1 0 0.2 0 0.3 0 0.1 0 0.2-0.1 0.3-0.1 0.2 0 0.4 0 0.5 0 0.2 0 0.4 0 0.5 0 0.1 0.1 0.2 0.1 0.3 0.1 0 0 0.2 0 0.3 0 0.1 0.1 0.2 0.1 0.3 0.1q0.1 0.1 0.5 0.2v-5.6c0-5 0-5.6 0-5.7 0-0.1 0-0.2 0-0.2 0.1-0.1 0.1-0.1 0.1-0.2 0.1 0 0.1-0.1 0.2-0.2 0 0 0.1-0.1 0.1-0.1q0.1 0 0.1 0 0.1-0.1 0.2-0.1c0 0 2.5-0.4 6-1 3.2-0.6 5.9-1 5.9-1q0.1 0 0.2 0zm-6 3l-4.9 0.8c0 1.5 0.1 1.9 0.1 1.9 0 0 2.2-0.4 4.8-0.8l4.9-0.8c0-1.8 0-2 0-2 0 0-2.2 0.4-4.9 0.9zm2.6 10.7c-0.1 0.1-0.2 0.1-0.2 0.1 0 0-0.1 0-0.2 0-0.1 0-0.2 0.1-0.3 0.1-0.1 0-0.2 0.1-0.2 0.1-0.1 0-0.2 0.1-0.2 0.1-0.1 0.1-0.2 0.1-0.2 0.2 0 0-0.1 0-0.1 0.1q-0.1 0.1-0.1 0.1-0.1 0.1-0.1 0.2 0 0.1 0.1 0.1 0 0.1 0 0.1c0 0.1 0.1 0.1 0.1 0.2 0.1 0.1 0.2 0.1 0.2 0.2 0.1 0 0.2 0 0.2 0.1 0.1 0 0.2 0.1 0.3 0.1 0.1 0 0.2 0 0.2 0.1 0.1 0 0.2 0 0.3 0 0 0 0.1 0 0.2 0.1 0.1 0 0.3 0 0.4 0 0.1 0 0.3 0 0.3 0 0.1-0.1 0.2-0.1 0.3-0.1 0.1 0 0.2 0 0.2 0 0.1-0.1 0.2-0.1 0.3-0.1 0 0 0.1-0.1 0.2-0.1 0.1-0.1 0.2-0.1 0.2-0.1 0.1-0.1 0.2-0.1 0.2-0.2 0.1-0.1 0.1-0.1 0.2-0.2q0 0 0-0.1 0 0 0-0.1 0-0.1 0-0.2 0 0-0.1-0.1c0-0.1-0.1-0.1-0.1-0.1-0.1-0.1-0.1-0.1-0.2-0.2 0 0-0.1-0.1-0.2-0.1-0.1 0-0.2-0.1-0.3-0.1-0.1 0-0.2-0.1-0.3-0.1-0.1 0-0.2 0-0.2 0q-0.2-0.1-0.5-0.1-0.3 0-0.4 0zm-11.6 2c-0.1 0-0.2 0-0.3 0-0.1 0.1-0.3 0.1-0.3 0.1-0.1 0-0.2 0.1-0.3 0.1 0 0-0.1 0-0.2 0.1-0.1 0-0.2 0.1-0.2 0.1-0.1 0-0.1 0.1-0.2 0.1 0 0.1-0.1 0.1-0.1 0.2q-0.1 0-0.1 0.1c0 0.1 0 0.1 0 0.2 0 0 0 0.1 0 0.1 0 0.1 0.1 0.1 0.1 0.2 0 0 0.1 0.1 0.2 0.1 0 0.1 0.1 0.1 0.1 0.1 0 0.1 0.1 0.1 0.2 0.1 0 0.1 0.1 0.1 0.2 0.1 0 0 0.1 0.1 0.1 0.1 0.1 0 0.2 0 0.2 0 0.1 0.1 0.2 0.1 0.2 0.1 0.1 0 0.2 0 0.3 0 0.1 0 0.2 0 0.3 0 0.1 0 0.3 0 0.4 0 0 0 0.2 0 0.2 0q0.1 0 0.2-0.1c0 0 0.1 0 0.2 0 0 0 0.1-0.1 0.2-0.1 0 0 0.1 0 0.2-0.1 0 0 0.1 0 0.1-0.1 0.1 0 0.1 0 0.2-0.1 0 0 0.1-0.1 0.1-0.1 0.1-0.1 0.1-0.1 0.1-0.2 0.1 0 0.1-0.1 0.1-0.1 0-0.1 0-0.1-0.1-0.2q0-0.1 0-0.1-0.1-0.1-0.1-0.1-0.1-0.1-0.2-0.1 0-0.1-0.1-0.1c-0.1-0.1-0.1-0.1-0.2-0.1 0-0.1-0.1-0.1-0.2-0.1 0 0-0.2-0.1-0.2-0.1-0.1 0-0.2 0-0.3-0.1-0.1 0-0.3 0-0.4 0 0 0-0.1 0-0.2 0 0 0-0.1 0-0.2 0z"/>
</svg>