<?xml version="1.0" encoding="iso-8859-1"?>
<!-- Uploaded to: SVG Repo, www.svgrepo.com, Generator: SVG Repo Mixer Tools -->
<svg fill="#ffffff" height="20px" width="20px" version="1.1" id="Layer_1" xmlns="http://www.w3.org/2000/svg" xmlns:xlink="http://www.w3.org/1999/xlink" 
	 viewBox="0 0 512 512" xml:space="preserve">
<g>
	<g>
		<g>
			<path d="M256,234.667c-11.776,0-21.333,9.579-21.333,21.333c0,11.755,9.557,21.333,21.333,21.333s21.333-9.579,21.333-21.333
				C277.333,244.245,267.776,234.667,256,234.667z"/>
			<path d="M256,0C114.837,0,0,114.837,0,256s114.837,256,256,256s256-114.837,256-256S397.163,0,256,0z M128,256
				c0,11.776-9.536,21.333-21.333,21.333c-11.797,0-21.333-9.557-21.333-21.333c0-94.101,76.565-170.667,170.667-170.667
				c11.797,0,21.333,9.557,21.333,21.333S267.797,128,256,128C185.408,128,128,185.408,128,256z M256,320c-35.285,0-64-28.715-64-64
				s28.715-64,64-64s64,28.715,64,64S291.285,320,256,320z"/>
		</g>
	</g>
</g>
</svg>
