<svg version="1.2" xmlns="http://www.w3.org/2000/svg" viewBox="0 0 20 20" width="20" height="20">
	<title>download-package-svgrepo-com</title>
	<style>
		.s0 { fill: transparent;stroke: #ffffff;stroke-linecap: round;stroke-linejoin: round;stroke-width: 2.2 } 
	</style>
	<g id="File / Download_Package">
		<path id="Vector" fill-rule="evenodd" class="s0" d="m18.9 5.6v9.7c0 1.3 0 1.9-0.3 2.4-0.2 0.4-0.5 0.7-0.9 0.9-0.5 0.3-1.1 0.3-2.4 0.3h-10.6c-1.3 0-1.9 0-2.4-0.3-0.4-0.2-0.7-0.5-0.9-0.9-0.3-0.5-0.3-1.1-0.3-2.4v-9.7m0 0l1.5-2.7c0.4-0.7 0.6-1 0.8-1.2q0.4-0.3 0.9-0.5c0.3-0.1 0.7-0.1 1.4-0.1h8.6c0.7 0 1.1 0 1.4 0.1q0.5 0.2 0.9 0.5c0.2 0.2 0.4 0.6 0.8 1.2l1.5 2.7zm0 0h17.8m-8.9 3.3v6.7m0 0l3.3-2.3m-3.3 2.3l-3.4-2.3"/>
	</g>
</svg>