<svg version="1.2" xmlns="http://www.w3.org/2000/svg" viewBox="0 0 24 20" width="24" height="20">
	<title>volume-mute-svgrepo-com-svg</title>
	<style>
		.s0 { fill: #ffffff} 
	</style>
	<g id="Folder 2">
		<path fill-rule="evenodd" class="s0" d="m3.7 5l-2.2-2.2c-0.4-0.4-0.4-1.1 0-1.5 0.4-0.4 1.1-0.4 1.5 0l16.1 16c0.4 0.4 0.4 1.1 0 1.5-0.4 0.4-1.1 0.4-1.5 0l-2.3-2.2q-0.1 0.4-0.2 0.8c-0.3 1.4-1.6 2.2-2.9 2.2-0.8 0-1.6-0.3-2.2-0.8l-3.1-2.9c-0.4-0.3-0.9-0.5-1.5-0.5h-0.2c-2.4 0-4.3-2-4.3-4.3v-2.1c0-1.8 1.2-3.4 2.8-4zm1.8 1.8q0 0-0.1 0h-0.2c-1.2 0-2.1 1-2.1 2.2v2.1c0 1.2 0.9 2.1 2.1 2.1h0.2c1.1 0 2.1 0.4 2.9 1.1l3.2 2.9q0.3 0.3 0.7 0.3c0.5 0 0.8-0.3 0.9-0.6q0.2-0.9 0.4-2.2z"/>
		<path class="s0" d="m13.1 3.2c0.3 1.3 0.7 3.6 0.7 6.6l2.1 2.1q0-0.9 0-1.9c0-3.3-0.4-5.8-0.8-7.3-0.3-1.4-1.6-2.3-2.9-2.3-0.8 0-1.6 0.3-2.2 0.9l-2.5 2.3 1.5 1.5 2.5-2.2q0.3-0.3 0.7-0.3c0.5 0 0.8 0.3 0.9 0.6z"/>
	</g>
	<g id="Folder 1">
		<path class="s0" d="m20.8 3.7c0.6-0.2 1.2 0 1.5 0.6 0.8 1.6 1.1 3.7 1.1 5.7 0 2-0.3 4.1-1.1 5.8-0.3 0.5-0.9 0.8-1.5 0.5-0.5-0.2-0.7-0.9-0.5-1.4 0.7-1.3 1-3.1 1-4.9 0-1.8-0.3-3.5-1-4.8-0.2-0.6 0-1.2 0.5-1.5z"/>
		<path class="s0" d="m17.6 14.2c-0.5-0.3-0.7-0.9-0.5-1.4 0.9-1.9 0.9-3.7 0-5.5-0.2-0.5 0-1.2 0.5-1.4 0.5-0.3 1.2-0.1 1.4 0.5 1.3 2.4 1.3 4.9 0 7.3-0.2 0.5-0.9 0.7-1.4 0.5z"/>
	</g>
</svg>
