<svg version="1.2" xmlns="http://www.w3.org/2000/svg" viewBox="0 0 20 20" width="20" height="20">
	<title>random-svgrepo-com-svg</title>
	<style>
		.s0 { fill: #ffffff } 
	</style>
	<path fill-rule="evenodd" class="s0" d="m0.4 14.1q0.3-0.3 0.9-0.3h1.2q1.6 0 2.7-1.1 1.1-1.1 1.1-2.7-0.1-1.2 0.4-2.4 0.5-1.2 1.4-2 0.8-0.8 2-1.3 1.1-0.5 2.4-0.5h2.5v-1.3q0-0.4 0.2-0.7 0.2-0.3 0.6-0.4 0.3-0.2 0.7-0.1 0.3 0 0.6 0.3l2.5 2.5q0.4 0.4 0.4 0.9 0 0.5-0.4 0.9l-2.5 2.5q-0.2 0.3-0.6 0.3-0.4 0.1-0.7 0-0.3-0.2-0.6-0.5-0.2-0.3-0.2-0.7v-1.2h-2.5q-1.6 0-2.7 1.1-1 1.1-1 2.6 0 1.3-0.5 2.4-0.6 1.2-1.4 2-0.8 0.9-2 1.4-1.1 0.5-2.4 0.5h-1.2q-0.6 0-0.9-0.4-0.4-0.4-0.4-0.9 0-0.5 0.4-0.9zm0-10q0.3-0.3 0.9-0.3h1.2q2.3 0 4.2 1.6-0.9 1-1.3 2.3-0.5-0.7-1.3-1.1-0.7-0.3-1.6-0.3h-1.2q-0.6 0-0.9-0.4-0.4-0.4-0.4-0.9 0-0.5 0.4-0.9zm9.2 8.3q0.5 0.6 1.3 1 0.7 0.4 1.6 0.4h2.5v-1.3q0-0.4 0.2-0.7 0.2-0.3 0.6-0.4 0.3-0.2 0.7-0.1 0.3 0 0.6 0.3l2.5 2.5q0.4 0.4 0.4 0.9 0 0.5-0.4 0.9l-2.5 2.5q-0.2 0.3-0.6 0.3-0.4 0.1-0.7 0-0.3-0.1-0.6-0.5-0.2-0.3-0.2-0.7v-1.2h-2.5q-2.4 0-4.1-1.6 0.8-1.1 1.2-2.3z"/>
</svg>
