<svg version="1.2" xmlns="http://www.w3.org/2000/svg" viewBox="0 0 20 20" width="20" height="20">
	<title>video-library-svgrepo-com</title>
	<style>
		.s0 { fill: #ffffff } 
	</style>
	<path class="s0" d="m6.5 0h7q0.3 0 0.6 0c1.1 0.1 2 0.8 2.4 1.7h-13c0.4-0.9 1.3-1.6 2.4-1.7q0.3 0 0.6 0z"/>
	<path class="s0" d="m4.3 2.7c-1.4 0-2.5 0.9-2.9 2q0 0 0 0 0.6-0.1 1.2-0.2c1.1-0.1 2.5-0.1 4-0.1h6.9c1.6 0 3 0 4.1 0.1q0.6 0.1 1.2 0.2 0 0 0 0c-0.4-1.1-1.5-2-2.9-2z"/>
	<path fill-rule="evenodd" class="s0" d="m19.3 6.5c1 1 0.8 2.5 0.3 5.6l-0.4 2.9c-0.4 2.4-0.5 3.6-1.4 4.3-0.9 0.7-2.2 0.7-4.9 0.7h-5.8c-2.7 0-4 0-4.9-0.7-0.9-0.7-1-1.9-1.4-4.3l-0.4-2.9c-0.5-3.1-0.7-4.6 0.3-5.6 0.9-1 2.6-1 6-1h6.6c3.4 0 5.1 0 6 1zm-6.7 7.3c0.5-0.4 0.5-1.2 0-1.6l-3.4-2.1c-0.5-0.3-1.2 0.1-1.2 0.8v4.2c0 0.7 0.7 1.1 1.2 0.8z"/>
</svg>