<svg version="1.2" xmlns="http://www.w3.org/2000/svg" viewBox="0 0 93 18" width="93" height="18">
	<title>LOGOTIPO</title>
	<style>
		.s0 { fill: #ffffff } 
		.s1 { fill: #000000 } 
	</style>
	<g id="LOGOTIPO">
		<g id="SONIICA">
			<path id="S" class="s0" aria-label="S"  d="m32.9 12.3q0 1.2-0.4 2.1-0.4 0.9-1.2 1.5-0.7 0.6-1.8 1-1 0.3-2.4 0.3-1.2 0-2.4-0.2-1.1-0.3-2.1-0.8v-3.3q0.6 0.3 1.2 0.5 0.5 0.3 1.1 0.5 0.6 0.2 1.1 0.3 0.6 0.1 1.2 0.1 0.6 0 1-0.1 0.4-0.2 0.7-0.4 0.2-0.2 0.4-0.6 0.1-0.3 0.1-0.7 0-0.5-0.2-0.8-0.2-0.4-0.6-0.7-0.3-0.3-0.9-0.6-0.5-0.3-1.1-0.6-0.5-0.3-1.2-0.7-0.6-0.4-1.2-1-0.6-0.5-1-1.4-0.4-0.8-0.4-1.9 0-1.2 0.4-2 0.4-0.9 1.1-1.5 0.7-0.7 1.6-1 1-0.3 2.2-0.3 0.6 0 1.2 0.1 0.6 0.1 1.2 0.2 0.5 0.2 1.1 0.4 0.6 0.2 1.2 0.5l-1.2 2.7q-0.5-0.2-0.9-0.4-0.5-0.2-0.9-0.3-0.4-0.1-0.8-0.2-0.4 0-0.8 0-0.9 0-1.4 0.4-0.5 0.5-0.5 1.3 0 0.4 0.1 0.8 0.2 0.3 0.5 0.6 0.3 0.3 0.8 0.6 0.5 0.2 1.2 0.6 0.9 0.5 1.6 1 0.7 0.4 1.3 1 0.5 0.6 0.8 1.3 0.3 0.8 0.3 1.7z"/>
			<path id="o" class="s0" aria-label="o"  d="m38 10.6q0 1.9 0.5 2.9 0.6 0.9 1.8 0.9 1.2 0 1.7-1 0.6-0.9 0.6-2.8 0-1.9-0.6-2.9-0.5-0.9-1.7-0.9-1.2 0-1.8 0.9-0.5 1-0.5 2.9zm8.1 0q0 1.6-0.4 2.8-0.4 1.3-1.1 2.1-0.8 0.8-1.9 1.3-1.1 0.4-2.5 0.4-1.2 0-2.3-0.4-1.1-0.5-1.8-1.3-0.8-0.8-1.2-2.1-0.5-1.2-0.5-2.8 0-1.6 0.4-2.9 0.4-1.2 1.2-2 0.8-0.9 1.8-1.3 1.1-0.5 2.5-0.5 1.3 0 2.4 0.5 1 0.4 1.8 1.3 0.8 0.8 1.2 2 0.4 1.3 0.4 2.9z"/>
			<path id="n" class="s0" aria-label="n"  d="m59 8.6v8.4h-3.5v-7.5q0-1.4-0.5-2.1-0.4-0.7-1.3-0.7-0.7 0-1.1 0.3-0.5 0.3-0.8 0.8-0.2 0.6-0.3 1.4-0.2 0.8-0.2 1.8v6h-3.5v-12.8h2.7l0.5 1.6h0.2q0.3-0.5 0.6-0.8 0.4-0.4 0.9-0.6 0.5-0.2 1-0.3 0.5-0.2 1.1-0.2 0.9 0 1.7 0.3 0.8 0.3 1.3 0.9 0.6 0.5 0.9 1.4 0.3 0.9 0.3 2.1z"/>
			<path id="c" class="s0" aria-label="c"  d="m76.7 17.2q-1.3 0-2.4-0.3-1.1-0.4-1.9-1.2-0.8-0.8-1.2-2.1-0.5-1.2-0.5-2.9 0-2 0.5-3.2 0.4-1.3 1.2-2.1 0.8-0.8 1.9-1.1 1.1-0.4 2.4-0.4 1 0 2 0.3 1 0.2 1.8 0.7l-1 2.6q-0.7-0.3-1.4-0.5-0.7-0.2-1.4-0.2-1.2 0-1.8 0.9-0.6 1-0.6 2.9 0 2 0.6 2.9 0.6 0.9 1.8 0.9 1 0 1.8-0.3 0.8-0.2 1.7-0.6v2.9q-0.5 0.2-0.9 0.4-0.4 0.1-0.8 0.2-0.4 0.1-0.8 0.2-0.5 0-1 0z"/>
			<path id="a" class="s0" aria-label="a"  d="m92.7 17h-2.4l-0.7-1.7h-0.1q-0.4 0.5-0.7 0.9-0.4 0.3-0.9 0.6-0.4 0.2-1 0.3-0.5 0.1-1.3 0.1-0.7 0-1.4-0.2-0.7-0.3-1.2-0.8-0.5-0.5-0.7-1.2-0.3-0.8-0.3-1.8 0-2.1 1.3-3 1.3-1 3.9-1.1l2.1-0.1v-0.9q0-0.8-0.5-1.2-0.5-0.4-1.3-0.4-0.8 0-1.6 0.3-0.8 0.2-1.6 0.6l-1.1-2.3q1-0.6 2.1-0.9 1.2-0.3 2.5-0.3 2.4 0 3.6 1.1 1.3 1.2 1.3 3.5zm-3.4-4.9v-1.1l-1.2 0.1q-0.7 0-1.2 0.2-0.5 0.1-0.8 0.4-0.2 0.3-0.4 0.6-0.1 0.4-0.1 0.9 0 0.8 0.4 1.1 0.4 0.3 1 0.3 0.5 0 0.9-0.1 0.4-0.2 0.7-0.5 0.3-0.4 0.5-0.8 0.2-0.5 0.2-1.1z"/>
			<path id="Shape 2" class="s0" d="m64.1 4.5v12.9h-3.5v-12.9z"/>
			<path id="Shape 2 copy" class="s0" d="m69.3 4.5v12.9h-3.6v-12.9z"/>
		</g>
		<g id="LOGO">
			<filter id="f0">
				<feFlood flood-color="#ffffff" flood-opacity="1" />
				<feBlend mode="normal" in2="SourceGraphic"/>
				<feComposite in2="SourceAlpha" operator="in" />
			</filter>
			<g id="Folder 3" filter="url(#f0)">
				<g id="Folder 1">
					<path class="s1" d="m7.5 0.4c-0.9 0-1.6 0.8-1.6 1.6v14c0 0.8 0.7 1.6 1.6 1.6 0.9 0 1.6-0.8 1.6-1.6v-14c0-0.8-0.7-1.6-1.6-1.6z"/>
					<path class="s1" d="m11.2 5.2c0-0.8 0.8-1.6 1.7-1.6 0.8 0 1.6 0.8 1.6 1.6v7.5c0 0.9-0.8 1.6-1.6 1.6-0.9 0-1.7-0.7-1.7-1.6z"/>
					<path class="s1" d="m2.1 5.8c-0.8 0-1.6 0.7-1.6 1.6v3.2c0 0.9 0.8 1.6 1.6 1.6 0.9 0 1.7-0.7 1.7-1.6v-3.2c0-0.9-0.8-1.6-1.7-1.6z"/>
					<path class="s1" d="m18.2 5.8c-0.9 0-1.6 0.7-1.6 1.6v3.2c0 0.9 0.7 1.6 1.6 1.6 0.9 0 1.6-0.7 1.6-1.6v-3.2c0-0.9-0.7-1.6-1.6-1.6z"/>
				</g>
			</g>
		</g>
	</g>
</svg>