<svg version="1.2" xmlns="http://www.w3.org/2000/svg" viewBox="0 0 20 20" width="20" height="20">
	<title>add-plus-circle-svgrepo-com (1)</title>
	<style>
		.s0 { fill: #ffffff } 
	</style>
	<path id="Layer 1" fill-rule="evenodd" class="s0" d="m10.1 0c0.3 0 0.5 0 0.7 0 0.1 0 0.3 0 0.4 0.1 0.1 0 0.2 0 0.3 0 0.1 0 0.3 0.1 0.5 0.1 0.1 0 0.3 0.1 0.5 0.1 0.1 0 0.3 0.1 0.5 0.1 0.1 0.1 0.3 0.1 0.4 0.2 0.1 0 0.2 0.1 0.3 0.1 0.1 0 0.3 0.1 0.4 0.1 0 0.1 0.2 0.2 0.4 0.2 0.1 0.1 0.3 0.2 0.4 0.3 0.1 0 0.2 0.1 0.3 0.1 0.1 0.1 0.2 0.2 0.3 0.2 0 0.1 0.2 0.1 0.2 0.2 0.1 0 0.2 0.1 0.3 0.2 0.1 0 0.2 0.1 0.3 0.2 0 0 0.1 0.1 0.2 0.1 0 0.1 0.1 0.2 0.2 0.3 0.1 0 0.2 0.1 0.3 0.2 0 0.1 0.2 0.2 0.3 0.3 0 0.1 0.2 0.2 0.2 0.3 0.1 0.1 0.2 0.2 0.3 0.3 0 0 0.1 0.2 0.2 0.3 0.1 0.1 0.2 0.3 0.3 0.5 0.1 0.1 0.2 0.3 0.3 0.4 0 0 0.1 0.2 0.2 0.3 0 0.1 0.1 0.2 0.2 0.3 0 0.2 0.1 0.4 0.2 0.5 0 0.1 0.1 0.2 0.1 0.2 0 0.1 0 0.2 0.1 0.2 0 0.1 0 0.2 0.1 0.3 0 0.1 0 0.3 0.1 0.4 0 0.1 0.1 0.3 0.1 0.4 0 0.2 0.1 0.4 0.1 0.5 0 0.1 0.1 0.3 0.1 0.4 0 0.1 0 0.3 0 0.4 0 0 0.1 0.2 0.1 0.3 0 0.1 0 0.3 0 0.4 0 0.1 0 0.3 0 0.5 0 0.2 0 0.4 0 0.5 0 0.1 0 0.3 0 0.4 0 0.1-0.1 0.3-0.1 0.4 0 0.1 0 0.2 0 0.3 0 0.1-0.1 0.3-0.1 0.4 0 0.1-0.1 0.3-0.1 0.4 0 0.1 0 0.2-0.1 0.3 0 0 0 0.2 0 0.3-0.1 0.1-0.1 0.2-0.2 0.3 0 0.1 0 0.3-0.1 0.4 0 0.1-0.1 0.3-0.1 0.4-0.1 0-0.2 0.2-0.3 0.4 0 0.1-0.1 0.4-0.2 0.5-0.1 0.1-0.2 0.2-0.2 0.3 0 0-0.1 0.2-0.2 0.2 0 0.1-0.1 0.2-0.2 0.3 0 0.1-0.1 0.2-0.2 0.3 0 0.1-0.1 0.2-0.2 0.3-0.1 0.1-0.2 0.2-0.3 0.3 0 0.1-0.2 0.2-0.3 0.3-0.1 0.2-0.2 0.3-0.3 0.3 0 0.1-0.1 0.1-0.1 0.2-0.1 0-0.2 0.1-0.2 0.1-0.1 0.1-0.2 0.2-0.3 0.2-0.1 0.1-0.2 0.2-0.3 0.3-0.1 0-0.2 0.2-0.4 0.2-0.1 0.1-0.3 0.2-0.4 0.3 0 0-0.2 0.1-0.3 0.2-0.1 0-0.3 0.1-0.4 0.2-0.1 0.1-0.3 0.1-0.4 0.2 0 0-0.2 0.1-0.3 0.1-0.1 0-0.2 0.1-0.3 0.1-0.1 0.1-0.3 0.1-0.4 0.1-0.1 0.1-0.2 0.1-0.2 0.1-0.1 0-0.3 0.1-0.4 0.1-0.1 0-0.3 0.1-0.4 0.1-0.2 0-0.3 0.1-0.4 0.1-0.1 0-0.3 0-0.4 0-0.1 0-0.2 0.1-0.2 0.1-0.1 0-0.3 0-0.4 0-0.1 0-0.4 0-0.6 0-0.2 0-0.5 0-0.6 0-0.1 0-0.3 0-0.4 0 0 0-0.1-0.1-0.2-0.1-0.1 0-0.3 0-0.4 0-0.1 0-0.2-0.1-0.4-0.1-0.1 0-0.3-0.1-0.4-0.1-0.1 0-0.3-0.1-0.4-0.1 0 0-0.1 0-0.2-0.1-0.1 0-0.3 0-0.4-0.1-0.1 0-0.2-0.1-0.3-0.1-0.1 0-0.3-0.1-0.3-0.1-0.1-0.1-0.3-0.1-0.4-0.2-0.1-0.1-0.3-0.2-0.4-0.2-0.1-0.1-0.3-0.2-0.3-0.2-0.1-0.1-0.3-0.2-0.4-0.3-0.2 0-0.3-0.2-0.4-0.2-0.1-0.1-0.2-0.2-0.3-0.3-0.1 0-0.2-0.1-0.3-0.2 0 0-0.1-0.1-0.2-0.1 0-0.1-0.1-0.1-0.1-0.2-0.1 0-0.2-0.1-0.3-0.3-0.1-0.1-0.3-0.2-0.4-0.3 0-0.1-0.1-0.2-0.2-0.3-0.1-0.1-0.2-0.2-0.2-0.3-0.1 0-0.1-0.1-0.2-0.2-0.1-0.1-0.2-0.3-0.2-0.4-0.1 0-0.2-0.2-0.2-0.3-0.1-0.1-0.2-0.2-0.2-0.3-0.1-0.1-0.2-0.3-0.3-0.4 0-0.2-0.1-0.4-0.2-0.4 0-0.1-0.1-0.3-0.1-0.4 0-0.1-0.1-0.2-0.1-0.3-0.1-0.1-0.1-0.3-0.2-0.4 0-0.1 0-0.3-0.1-0.4 0-0.1 0-0.3-0.1-0.4 0-0.1 0-0.3 0-0.3 0-0.1-0.1-0.2-0.1-0.3 0-0.1 0-0.3 0-0.4 0 0-0.1-0.2-0.1-0.3 0-0.1 0-0.3 0-0.4 0-0.1 0-0.3 0-0.5 0-0.2 0-0.4 0-0.5 0-0.1 0-0.3 0-0.4 0-0.1 0.1-0.3 0.1-0.4 0-0.1 0-0.2 0-0.3 0-0.1 0.1-0.3 0.1-0.4 0-0.1 0.1-0.3 0.1-0.5 0-0.1 0.1-0.3 0.1-0.4 0.1-0.1 0.1-0.3 0.1-0.4 0.1-0.1 0.1-0.2 0.1-0.3 0.1 0 0.1-0.1 0.1-0.2 0.1-0.1 0.1-0.2 0.2-0.3 0-0.1 0.1-0.3 0.2-0.4 0-0.1 0.1-0.3 0.1-0.3 0.1-0.1 0.2-0.3 0.2-0.3 0.1-0.1 0.1-0.3 0.2-0.4 0.1 0 0.1-0.2 0.2-0.2 0.1-0.1 0.1-0.2 0.2-0.3 0-0.1 0.1-0.2 0.2-0.2 0-0.1 0.1-0.2 0.2-0.3 0.1-0.1 0.2-0.3 0.3-0.4 0.1-0.1 0.3-0.2 0.3-0.3 0.1-0.1 0.2-0.2 0.3-0.2 0.1-0.1 0.2-0.2 0.2-0.3 0.1 0 0.2-0.1 0.2-0.1 0.1-0.1 0.2-0.2 0.3-0.2 0.1-0.1 0.2-0.2 0.3-0.2 0.1-0.1 0.2-0.1 0.2-0.2 0.1 0 0.2-0.1 0.3-0.2 0.1 0 0.3-0.1 0.3-0.2 0.1 0 0.3-0.1 0.5-0.2 0.1 0 0.3-0.1 0.4-0.2 0 0 0.2-0.1 0.3-0.1 0.1 0 0.2-0.1 0.3-0.1 0.1-0.1 0.3-0.1 0.4-0.2 0.2 0 0.4-0.1 0.5-0.1 0.2 0 0.4-0.1 0.5-0.1 0.2 0 0.4-0.1 0.5-0.1 0.1 0 0.2 0 0.3 0 0.1-0.1 0.3-0.1 0.4-0.1 0.1 0 0.3 0 0.3 0 0 0 0.3 0 0.6 0zm-0.4 2c-0.1 0-0.3 0-0.4 0-0.2 0.1-0.4 0.1-0.5 0.1-0.1 0-0.3 0-0.4 0.1-0.1 0-0.2 0-0.3 0-0.1 0.1-0.3 0.1-0.4 0.1-0.1 0.1-0.3 0.1-0.4 0.2-0.1 0-0.2 0.1-0.3 0.1-0.1 0-0.2 0.1-0.2 0.1-0.1 0-0.3 0.1-0.4 0.1-0.1 0.1-0.2 0.2-0.3 0.2 0 0-0.1 0.1-0.2 0.1-0.1 0.1-0.2 0.2-0.3 0.2-0.1 0.1-0.3 0.2-0.4 0.3 0 0-0.1 0.1-0.2 0.2 0 0-0.1 0.1-0.2 0.1 0 0.1-0.1 0.2-0.2 0.2-0.1 0.1-0.2 0.2-0.3 0.3-0.1 0.1-0.2 0.2-0.3 0.3 0 0-0.1 0.1-0.1 0.1 0 0.1-0.1 0.1-0.1 0.2-0.1 0-0.1 0.1-0.2 0.2-0.1 0.1-0.2 0.2-0.2 0.3-0.1 0.1-0.2 0.2-0.2 0.3-0.1 0.1-0.1 0.2-0.2 0.3 0 0-0.1 0.2-0.1 0.3-0.1 0.1-0.2 0.3-0.2 0.4 0 0-0.1 0.2-0.1 0.2-0.1 0.1-0.1 0.3-0.1 0.3-0.1 0.1-0.1 0.3-0.2 0.4 0 0.1 0 0.3-0.1 0.4 0 0 0 0.2 0 0.3-0.1 0.1-0.1 0.3-0.1 0.4 0 0.1 0 0.3-0.1 0.4 0 0.1 0 0.2 0 0.3 0 0.1 0 0.3 0 0.5 0 0.2 0 0.4 0 0.5 0 0.1 0 0.2 0 0.3 0.1 0.1 0.1 0.3 0.1 0.4 0 0.1 0 0.3 0.1 0.4 0 0.1 0 0.2 0 0.3 0.1 0.1 0.1 0.3 0.1 0.4 0.1 0.1 0.1 0.3 0.2 0.4 0 0.1 0.1 0.3 0.1 0.3 0 0.1 0.1 0.2 0.1 0.2 0 0.1 0.1 0.3 0.2 0.4 0 0.1 0.1 0.3 0.1 0.3 0.1 0.1 0.2 0.3 0.2 0.3 0 0.1 0.1 0.2 0.2 0.3 0 0 0.1 0.2 0.2 0.3 0 0.1 0.1 0.2 0.2 0.2 0 0.1 0.1 0.1 0.1 0.2 0 0 0.1 0.1 0.2 0.2 0 0 0.2 0.2 0.3 0.3 0.1 0.1 0.2 0.2 0.3 0.3 0.1 0 0.2 0.1 0.2 0.2 0.1 0 0.2 0.1 0.3 0.2 0.1 0.1 0.2 0.2 0.3 0.2 0.1 0.1 0.2 0.2 0.3 0.2 0.1 0.1 0.2 0.1 0.3 0.2 0 0 0.2 0.1 0.3 0.1 0.1 0.1 0.2 0.1 0.3 0.2 0 0 0.2 0.1 0.3 0.1 0 0 0.2 0.1 0.3 0.1 0.1 0.1 0.3 0.1 0.4 0.2 0.1 0 0.3 0 0.4 0.1 0.1 0 0.2 0 0.3 0 0.1 0.1 0.3 0.1 0.4 0.1 0.1 0 0.2 0 0.3 0 0.1 0.1 0.2 0.1 0.3 0.1 0 0 0.2 0 0.3 0 0.2 0 0.4 0 0.6 0 0.1 0 0.3 0 0.3 0 0.1 0 0.2 0 0.3-0.1 0.1 0 0.2 0 0.3 0 0.1 0 0.3 0 0.4-0.1 0.1 0 0.2 0 0.3 0 0.1-0.1 0.3-0.1 0.4-0.1 0.1-0.1 0.3-0.1 0.4-0.2 0.1 0 0.3-0.1 0.3-0.1 0.1 0 0.2-0.1 0.2-0.1 0.1 0 0.2-0.1 0.3-0.1 0.1-0.1 0.3-0.1 0.3-0.2 0.1 0 0.3-0.1 0.3-0.2 0.1 0 0.3-0.1 0.3-0.2 0.1 0 0.3-0.1 0.4-0.2 0 0 0.1-0.1 0.2-0.2 0.1 0 0.1-0.1 0.2-0.1 0 0 0.1-0.1 0.1-0.1 0.1-0.1 0.2-0.2 0.3-0.3 0.1-0.1 0.3-0.3 0.3-0.3 0.1-0.1 0.2-0.2 0.2-0.2 0-0.1 0.1-0.1 0.1-0.2 0.1 0 0.2-0.1 0.2-0.2 0.1-0.1 0.2-0.3 0.2-0.3 0.1-0.1 0.2-0.2 0.2-0.3 0 0 0.1-0.2 0.2-0.2 0-0.1 0.1-0.3 0.1-0.4 0.1-0.1 0.2-0.3 0.2-0.4 0 0 0.1-0.1 0.1-0.2 0 0 0.1-0.2 0.1-0.3 0.1-0.1 0.1-0.2 0.1-0.3 0.1-0.1 0.1-0.3 0.2-0.4 0-0.1 0-0.3 0-0.4 0.1-0.1 0.1-0.3 0.1-0.4 0-0.1 0-0.3 0.1-0.4 0-0.1 0-0.2 0-0.3 0-0.1 0-0.3 0-0.5 0-0.2 0-0.4 0-0.5 0-0.1 0-0.2 0-0.3-0.1-0.1-0.1-0.3-0.1-0.4 0-0.1 0-0.3-0.1-0.4 0-0.1 0-0.2 0-0.3-0.1-0.1-0.1-0.3-0.1-0.4-0.1-0.1-0.1-0.3-0.2-0.3 0-0.1 0-0.2-0.1-0.3 0-0.1-0.1-0.3-0.1-0.4 0 0-0.1-0.2-0.2-0.3 0-0.1-0.1-0.3-0.2-0.4 0-0.1-0.1-0.2-0.1-0.2-0.1-0.1-0.1-0.2-0.2-0.3 0-0.1-0.1-0.2-0.2-0.3 0 0-0.1-0.1-0.2-0.2 0 0-0.1-0.1-0.1-0.2 0 0-0.1-0.1-0.1-0.1-0.1-0.1-0.2-0.2-0.3-0.3-0.1-0.1-0.3-0.3-0.3-0.3-0.1-0.1-0.2-0.2-0.2-0.2-0.1 0-0.1-0.1-0.2-0.1-0.1-0.1-0.2-0.2-0.2-0.2-0.1-0.1-0.3-0.2-0.4-0.3-0.1 0-0.2-0.1-0.3-0.2-0.1 0-0.2-0.1-0.2-0.1-0.1 0-0.2-0.1-0.3-0.2-0.1 0-0.3-0.1-0.4-0.1-0.1-0.1-0.2-0.1-0.2-0.1-0.1 0-0.2-0.1-0.3-0.1-0.1-0.1-0.2-0.1-0.3-0.1-0.1-0.1-0.3-0.1-0.4-0.2-0.1 0-0.3 0-0.4 0-0.1-0.1-0.3-0.1-0.4-0.1-0.1 0-0.3 0-0.5-0.1-0.1 0-0.3 0-0.4 0-0.1 0-0.2 0-0.2 0-0.1 0-0.2 0-0.4 0zm0.3 3c0.2 0 0.2 0 0.3 0 0 0 0.1 0.1 0.2 0.1 0 0 0.1 0.1 0.1 0.1q0.1 0.1 0.1 0.1c0.1 0.1 0.1 0.1 0.2 0.2 0 0 0 0.1 0 0.1q0.1 0.1 0.1 0.2c0 0.1 0 0.2 0 3.2h3.2 0.1c0 0 0.1 0.1 0.2 0.1 0 0 0.1 0.1 0.1 0.1q0.1 0.1 0.1 0.1c0.1 0.1 0.1 0.1 0.2 0.2 0 0 0 0.1 0 0.1q0.1 0.1 0.1 0.2 0 0.1 0 0.2 0 0.1 0 0.2 0 0.1-0.1 0.2 0 0 0 0.1-0.1 0.1-0.1 0.1c-0.1 0.1-0.1 0.1-0.2 0.2q0 0-0.1 0.1-0.1 0-0.1 0-0.1 0.1-0.2 0.1c0 0-0.2 0-3.2 0v1.6c0 1.3 0 1.5 0 1.6q0 0.1-0.1 0.2 0 0 0 0.1-0.1 0.1-0.1 0.1c-0.1 0.1-0.1 0.1-0.2 0.2q0 0-0.1 0.1-0.1 0-0.1 0-0.1 0.1-0.2 0.1 0 0-0.2 0-0.2 0-0.2 0-0.1 0-0.2-0.1 0 0-0.1 0-0.1-0.1-0.1-0.1-0.1-0.1-0.2-0.1c0-0.1 0-0.2-0.1-0.2q0-0.1 0-0.2-0.1 0-0.1-0.1c0-0.1 0-0.3 0-3.2h-1.6c-1.4 0-1.6 0-1.6 0q-0.1 0-0.2-0.1 0 0-0.1 0-0.1-0.1-0.1-0.1-0.1-0.1-0.2-0.1c0-0.1 0-0.2-0.1-0.2q0-0.1 0-0.2-0.1 0-0.1-0.1 0-0.1 0-0.2 0-0.1 0-0.2 0-0.1 0.1-0.2 0 0 0-0.1c0.1-0.1 0.1-0.1 0.1-0.2 0.1 0 0.1-0.1 0.2-0.1 0 0 0.1-0.1 0.2-0.1q0 0 0.2-0.1h3.2v-1.6c0-1.4 0-1.5 0-1.6q0-0.1 0.1-0.2 0 0 0-0.1c0.1-0.1 0.1-0.1 0.1-0.2 0.1 0 0.1-0.1 0.2-0.1q0.1 0 0.1-0.1 0.1 0 0.2-0.1 0.1 0 0.1 0c0.1 0 0.1 0 0.2 0z"/>
</svg>