<svg version="1.2" xmlns="http://www.w3.org/2000/svg" viewBox="0 0 20 20" width="20" height="20">
	<title>download-svgrepo-com</title>
	<style>
		.s0 { fill: #ffffff } 
	</style>
	<g>
		<path class="s0" d="m12.7 17c-0.5 0-0.9-0.4-0.9-0.9 0-0.5 0.4-0.9 0.9-0.9 0.5 0 0.9 0.4 0.9 0.9 0 0.5-0.4 0.9-0.9 0.9z"/>
		<path class="s0" d="m15.6 17c-0.4 0-0.8-0.4-0.8-0.9 0-0.5 0.4-0.9 0.8-0.9 0.5 0 0.9 0.4 0.9 0.9 0 0.5-0.4 0.9-0.9 0.9z"/>
		<path fill-rule="evenodd" class="s0" d="m19.7 14.9v2.3c0 1.6-1.2 2.8-2.7 2.8h-14c-1.5 0-2.7-1.2-2.7-2.8v-2.3c0-1 0.4-1.8 1.1-2.3l3.3-2.6c0.6-0.5 1.3-0.8 2.1-0.8h1l0.9 1c0.4 0.4 0.8 0.6 1.3 0.6 0.5 0 0.9-0.2 1.3-0.6l0.9-1h1c0.8 0 1.5 0.3 2.1 0.8l3.3 2.6c0.7 0.5 1.1 1.3 1.1 2.3zm-1.5 0q-0.1-0.5-0.4-0.9-0.3-0.3-0.8-0.3h-14q-0.5 0-0.8 0.3-0.3 0.4-0.4 0.9v2.3q0.1 0.5 0.4 0.9 0.3 0.3 0.8 0.3h14q0.5 0 0.8-0.3 0.3-0.4 0.4-0.9z"/>
		<path class="s0" d="m9.5 9.6q0.2 0.2 0.5 0.2 0.3 0 0.5-0.2l2.8-3.1c0.2-0.3 0.3-0.6 0.2-0.8-0.2-0.3-0.4-0.5-0.7-0.5h-1.3v-4.5c0-0.4-0.3-0.7-0.8-0.7h-1.4c-0.5 0-0.8 0.3-0.8 0.7v4.5h-1.3c-0.3 0-0.5 0.2-0.7 0.5-0.1 0.2 0 0.5 0.2 0.8z"/>
	</g>
</svg>