<svg version="1.2" xmlns="http://www.w3.org/2000/svg" viewBox="0 0 30 30" width="30" height="30"><style>.a{fill:#fff}</style><path class="a" d="m10.6 2.5h8.8q0.4 0 0.7 0c1.4 0.2 2.5 1 3 2.1h-16.2c0.5-1.1 1.6-1.9 3-2.1q0.3 0 0.7 0z"/><path class="a" d="m7.9 5.9c-1.8 0-3.2 1.1-3.7 2.4q0 0.1 0 0.1 0.8-0.2 1.6-0.3c1.3-0.2 3-0.2 5-0.2h0.1 8.5c2 0 3.7 0 5.1 0.2q0.7 0.1 1.5 0.3 0 0 0-0.1c-0.5-1.3-1.9-2.4-3.7-2.4z"/><path fill-rule="evenodd" class="a" d="m10.8 9.4h8.4c4.2 0 6.3 0 7.5 1.3 1.2 1.2 0.9 3.1 0.3 6.9l-0.5 3.6c-0.4 3-0.7 4.5-1.8 5.4-1.1 0.9-2.8 0.9-6.1 0.9h-7.2c-3.3 0-5 0-6.1-0.9-1.1-0.9-1.4-2.4-1.8-5.4l-0.5-3.6c-0.6-3.8-0.9-5.7 0.3-6.9 1.2-1.3 3.3-1.3 7.5-1.3zm0.2 14h8c0.5 0 1-0.4 1-0.9 0-0.5-0.5-0.9-1-0.9h-8c-0.5 0-1 0.4-1 0.9 0 0.5 0.5 0.9 1 0.9z"/></svg>