<svg version="1.2" xmlns="http://www.w3.org/2000/svg" viewBox="0 0 20 20" width="20" height="20">
	<title>add-playlist-3-svgrepo-com</title>
	<style>
		.s0 { fill: none;stroke: #ffffff;stroke-linecap: round;stroke-linejoin: round;stroke-width: 1.7 } 
		.s1 { fill: none;stroke: #ffffff;stroke-linecap: round;stroke-linejoin: round;stroke-width: 1.7 } 
	</style>
	<path id="secondary" fill-rule="evenodd" class="s0" d="m12.5 12.5h5m-8.3 3.3h8.3m-3.3-11.6h3.3m-1.7-1.7v3.3"/>
	<path id="primary" fill-rule="evenodd" class="s1" d="m9.2 10q0 0.9-0.4 1.6-0.4 0.8-1.1 1.2-0.7 0.5-1.6 0.6-0.8 0.1-1.6-0.2-0.4-0.1-0.8-0.4-0.4-0.3-0.6-0.7-0.3-0.4-0.4-0.8-0.2-0.4-0.2-0.9 0-0.4 0.1-0.9 0.1-0.4 0.4-0.8 0.3-0.4 0.6-0.7 0.4-0.3 0.9-0.4l3.1-1.2q0.4-0.1 0.6-0.3 0.3-0.3 0.5-0.6 0.2-0.3 0.4-0.6 0.1-0.4 0.1-0.7 0-0.4-0.2-0.7-0.1-0.3-0.3-0.5-0.3-0.2-0.6-0.4-0.3-0.1-0.6-0.1-0.3 0-0.6 0.1-0.3 0.2-0.6 0.4-0.2 0.2-0.3 0.5-0.2 0.3-0.2 0.7v11.6q0 0.4-0.1 0.7-0.1 0.3-0.4 0.5-0.2 0.2-0.5 0.4-0.3 0.1-0.6 0.1-0.4 0-0.7-0.1-0.3-0.2-0.5-0.4-0.2-0.2-0.4-0.5-0.1-0.3-0.1-0.7"/>
</svg>
